# xmcd CD database generated by RipIT
#
# Track frame offsets:
# 150
# 23019
# 43101
# 63860
# 78671
# 108470
# 129915
# 157948
# 191389
# 209575
#
# Disc length: 3105 seconds
#
# Revision: 1
# Processed by: cddbd v1.5.2PL0 Copyright (c) Steve Scherf et al.
# Submitted via: RipIT 3.9.0 www.suwald.com/ripit/ripit.html on 2017-04-30 at 16:51
#
DISCID=7d0c1f0a
DTITLE=Joan Baez - Joan Baez: 75th Birthday Celebration, CD 2
DYEAR=2016
DGENRE=Folk
TTITLE0=The Water Is Wide
TTITLE1=Don't Think Twice, It's All Right
TTITLE2=House of the Rising Sun
TTITLE3=She Never Could Resist A Winding Road
TTITLE4=Before The Deluge
TTITLE5=Diamonds and Rust
TTITLE6=Gracias a la Vida
TTITLE7=The Boxer
TTITLE8=The Night They Drove Old Dixie Down
TTITLE9=Forever Young
EXTD=
EXTT0=
EXTT1=
EXTT2=
EXTT3=
EXTT4=
EXTT5=
EXTT6=
EXTT7=
EXTT8=
EXTT9=
PLAYORDER=
